<?xml version="1.0" encoding="UTF-8" standalone="no"?>
<svg
   xmlns:dc="http://purl.org/dc/elements/1.1/"
   xmlns:cc="http://creativecommons.org/ns#"
   xmlns:rdf="http://www.w3.org/1999/02/22-rdf-syntax-ns#"
   xmlns:svg="http://www.w3.org/2000/svg"
   xmlns="http://www.w3.org/2000/svg"
   xmlns:sodipodi="http://sodipodi.sourceforge.net/DTD/sodipodi-0.dtd"
   xmlns:inkscape="http://www.inkscape.org/namespaces/inkscape"
   inkscape:version="1.0 (4035a4fb49, 2020-05-01)"
   sodipodi:docname="aperture.svg"
   id="svg6"
   version="1.1"
   width="32"
   viewBox="0 0 32 32"
   height="32">
  <metadata
     id="metadata12">
    <rdf:RDF>
      <cc:Work
         rdf:about="">
        <dc:format>image/svg+xml</dc:format>
        <dc:type
           rdf:resource="http://purl.org/dc/dcmitype/StillImage" />
      </cc:Work>
    </rdf:RDF>
  </metadata>
  <defs
     id="defs10" />
  <sodipodi:namedview
     inkscape:current-layer="svg6"
     inkscape:window-maximized="1"
     inkscape:window-y="-8"
     inkscape:window-x="-8"
     inkscape:cy="17.780527"
     inkscape:cx="16.736114"
     inkscape:zoom="18.782524"
     showgrid="false"
     id="namedview8"
     inkscape:window-height="1017"
     inkscape:window-width="1920"
     inkscape:pageshadow="2"
     inkscape:pageopacity="0"
     guidetolerance="10"
     gridtolerance="10"
     objecttolerance="10"
     borderopacity="1"
     bordercolor="#666666"
     pagecolor="#ffffff" />
  <title
     id="title2" />
  <g
     style="fill:#f4511e;fill-opacity:1"
     id="_1"
     data-name="1">
    <path
       style="fill:#f4511e;fill-opacity:1"
       id="lens_aperture_camera_focus"
       d="M30.49,12.12A15,15,0,1,0,29,23.5,14.91,14.91,0,0,0,30.49,12.12Zm-1.93.52A13.35,13.35,0,0,1,29,15.43l-5,2.88V5.77A12.87,12.87,0,0,1,28.56,12.64ZM10,19.46V12.54l6-3.47,6,3.47v6.92l-6,3.47Zm12-15v5.75L11.13,4A13.18,13.18,0,0,1,16,3,12.81,12.81,0,0,1,22,4.48ZM9,5.05l5,2.87L3.13,14.19A12.84,12.84,0,0,1,9,5.05ZM3,16.56l5-2.87V26.23A13,13,0,0,1,3,16.56Zm7,11V21.77L20.86,28A12.94,12.94,0,0,1,10,27.51ZM23,27l-5-2.88L28.88,17.8A13,13,0,0,1,23,27Z" />
  </g>
</svg>
