<?xml version="1.0" encoding="UTF-8" standalone="no"?>
<svg
   xmlns:dc="http://purl.org/dc/elements/1.1/"
   xmlns:cc="http://creativecommons.org/ns#"
   xmlns:rdf="http://www.w3.org/1999/02/22-rdf-syntax-ns#"
   xmlns:svg="http://www.w3.org/2000/svg"
   xmlns="http://www.w3.org/2000/svg"
   xmlns:sodipodi="http://sodipodi.sourceforge.net/DTD/sodipodi-0.dtd"
   xmlns:inkscape="http://www.inkscape.org/namespaces/inkscape"
   inkscape:version="1.0 (4035a4fb49, 2020-05-01)"
   sodipodi:docname="focal_length.svg"
   id="svg10"
   xml:space="preserve"
   enable-background="new 0 0 1000 1000"
   viewBox="0 0 1000 1000"
   y="0px"
   x="0px"
   version="1.1"><defs
   id="defs14" /><sodipodi:namedview
   inkscape:current-layer="svg10"
   inkscape:window-maximized="1"
   inkscape:window-y="-8"
   inkscape:window-x="-8"
   inkscape:cy="590.49622"
   inkscape:cx="590.00891"
   inkscape:zoom="0.60104076"
   showgrid="false"
   id="namedview12"
   inkscape:window-height="1017"
   inkscape:window-width="1920"
   inkscape:pageshadow="2"
   inkscape:pageopacity="0"
   guidetolerance="10"
   gridtolerance="10"
   objecttolerance="10"
   borderopacity="1"
   bordercolor="#666666"
   pagecolor="#ffffff" />
<metadata
   id="metadata2"> Svg Vector Icons : http://www.onlinewebfonts.com/icon <rdf:RDF><cc:Work
     rdf:about=""><dc:format>image/svg+xml</dc:format><dc:type
       rdf:resource="http://purl.org/dc/dcmitype/StillImage" /></cc:Work></rdf:RDF></metadata>
<g
   style="fill:#f4511e;fill-opacity:1"
   id="g8"><g
     style="fill:#f4511e;fill-opacity:1"
     id="g6"
     transform="translate(0.000000,511.000000) scale(0.100000,-0.100000)"><path
       style="fill:#f4511e;fill-opacity:1"
       id="path4"
       d="M8487.4,4942.2c-70-39.4-995.6-542.7-2054.8-1120.4s-1958.5-1063.5-2000-1081c-39.4-17.5-113.8-56.9-164.1-89.7c-48.1-30.6-886.2-490.2-1857.8-1021.9C1224.6,981.5,614.1,635.8,557.2,581.1c-137.9-133.5-186-253.8-186-472.7c0-216.6,48.1-339.2,183.8-470.5c54.7-52.5,702.4-420.1,1879.7-1061.3c986.9-538.3,1822.8-1000,1857.8-1021.9c32.8-24.1,116-67.8,181.6-98.5c65.6-30.6,1017.5-544.9,2111.6-1144.5C8404.2-4681.6,8588-4777.9,8697.4-4786.6c100.7-8.7,133.5-2.2,196.9,41.6c113.8,78.8,175.1,181.6,175.1,299.8c0,227.6-111.6,428.9-284.5,516.4c-59.1,30.6-109.4,65.7-109.4,76.6c0,13.1,39.4,118.2,89.7,236.3c516.4,1234.2,781.2,2271.4,851.2,3341.4c74.4,1120.4-190.4,2472.7-768.1,3927.9c-89.7,223.2-164.1,411.4-168.5,420.1s41.6,41.6,102.9,72.2c236.3,118.2,365.4,498.9,236.3,691.5C8894.4,5023.2,8710.6,5060.4,8487.4,4942.2z M8091.3,3441.1C8975.4,1568,9084.8-508.7,8402-2471.5c-98.5-284.5-389.5-951.9-439.8-1004.4c-2.2-4.4-571.1,293.2-1264.8,663l-1258.2,674l61.3,89.7c236.3,343.6,424.5,910.3,507.7,1523c37.2,264.8,37.2,997.8,0,1269.2c-80.9,608.3-271.3,1179.5-507.7,1523l-61.3,89.7l1251.7,669.6c689.3,369.8,1258.2,671.8,1264.8,671.8C7962.2,3697.1,8023.5,3581.1,8091.3,3441.1z M4854.9,1585.5c151-308.5,240.7-682.7,280.1-1155.4c59.1-711.2-91.9-1531.8-358.9-1945.3l-70-111.6l-41.6,52.5c-72.2,87.5-207.9,391.7-264.8,593C4235.6-408,4211.6,316.3,4334.1,939.9c61.3,308.6,196.9,663,321.7,840.3l43.8,61.3l41.6-50.3C4763,1762.7,4815.5,1670.8,4854.9,1585.5z M3447.9,1069.1c-120.4-625.8-120.4-1295.4,0-1921.3c24.1-124.7,41.6-227.6,37.2-232c-4.4-4.4-468.3,240.7-1035,544.9L1421.6,10v98.5v98.5L2450,758.3c566.8,302,1030.7,547.1,1035,542.7C3489.5,1298.8,3472,1193.8,3447.9,1069.1z" /></g></g>
</svg>
