<?xml version="1.0" encoding="UTF-8" standalone="no"?>
<svg
   xmlns:osb="http://www.openswatchbook.org/uri/2009/osb"
   xmlns:dc="http://purl.org/dc/elements/1.1/"
   xmlns:cc="http://creativecommons.org/ns#"
   xmlns:rdf="http://www.w3.org/1999/02/22-rdf-syntax-ns#"
   xmlns:svg="http://www.w3.org/2000/svg"
   xmlns="http://www.w3.org/2000/svg"
   xmlns:sodipodi="http://sodipodi.sourceforge.net/DTD/sodipodi-0.dtd"
   xmlns:inkscape="http://www.inkscape.org/namespaces/inkscape"
   inkscape:version="1.0 (4035a4fb49, 2020-05-01)"
   id="svg8"
   version="1.1"
   viewBox="0 0 518.24316 509.77582"
   height="509.77582mm"
   width="518.24316mm">
  <defs
     id="defs2">
    <rect
       id="rect2940"
       height="62.744049"
       width="111.12501"
       y="157.2381"
       x="100.54167" />
    <linearGradient
       osb:paint="solid"
       id="linearGradient1006">
      <stop
         id="stop1004"
         offset="0"
         style="stop-color:#000096;stop-opacity:1;" />
    </linearGradient>
  </defs>
  <sodipodi:namedview
     inkscape:window-maximized="1"
     inkscape:window-y="-8"
     inkscape:window-x="-8"
     inkscape:window-height="1017"
     inkscape:window-width="1920"
     fit-margin-bottom="0"
     fit-margin-right="0"
     fit-margin-left="0"
     fit-margin-top="0"
     showgrid="false"
     inkscape:document-rotation="0"
     inkscape:current-layer="layer4"
     inkscape:document-units="mm"
     inkscape:cy="829.43963"
     inkscape:cx="235.5033"
     inkscape:zoom="0.35"
     inkscape:pageshadow="2"
     inkscape:pageopacity="0.0"
     borderopacity="1.0"
     bordercolor="#666666"
     pagecolor="#ffffff"
     id="base" />
  <metadata
     id="metadata5">
    <rdf:RDF>
      <cc:Work
         rdf:about="">
        <dc:format>image/svg+xml</dc:format>
        <dc:type
           rdf:resource="http://purl.org/dc/dcmitype/StillImage" />
        <dc:title></dc:title>
      </cc:Work>
    </rdf:RDF>
  </metadata>
  <g
     transform="translate(-1.2802,-1.5538502)"
     id="layer1"
     inkscape:groupmode="layer"
     inkscape:label="Layer 1">
    <rect
       ry="0"
       y="9.5899"
       x="9.3162498"
       height="493.7037"
       width="502.17108"
       id="rect833"
       style="opacity:0.622581;fill:none;fill-opacity:0;stroke:#c8c8c8;stroke-width:16.0721;stroke-linecap:round;stroke-miterlimit:4;stroke-dasharray:16.0721, 32.1439;stroke-dashoffset:0;stroke-opacity:1;paint-order:stroke fill markers" />
    <text
       transform="translate(101.24834,-74.839286)"
       style="font-style:normal;font-weight:normal;font-size:50.8px;line-height:1.25;font-family:sans-serif;white-space:pre;shape-inside:url(#rect2940);fill:#595b66;fill-opacity:1;stroke:none;"
       id="text2938"
       xml:space="preserve"><tspan
         x="100.54102"
         y="203.58466"><tspan
           style="font-style:normal;font-variant:normal;font-weight:bold;font-stretch:normal;font-family:sans-serif;-inkscape-font-specification:'sans-serif Bold';fill:#595b66;fill-opacity:1">404</tspan></tspan></text>
    <text
       id="text2946"
       y="227.54166"
       x="109.92737"
       style="font-style:normal;font-weight:normal;font-size:10.5833px;line-height:0;font-family:sans-serif;fill:#000000;fill-opacity:1;stroke:none;stroke-width:0.264583"
       xml:space="preserve"><tspan
         dx="0"
         style="font-size:33.8667px;line-height:1.25;letter-spacing:0.60325px;word-spacing:0px;fill:#595b66;fill-opacity:0.596078;stroke-width:0.264583"
         y="227.54166"
         x="109.92737"
         id="tspan2944"
         sodipodi:role="line">Image not found</tspan></text>
  </g>
  <g
     transform="translate(-1.2802,-1.5538502)"
     style="display:inline"
     inkscape:label="Layer 2"
     id="layer4"
     inkscape:groupmode="layer">
    <path
       transform="scale(0.26458333)"
       id="path3105"
       d="m 941.98998,1674.9403 c -43.79227,-9.4058 -80.54127,-29.1842 -115.69383,-62.2667 -54.8091,-51.5814 -80.95454,-116.08 -77.11593,-190.2384 1.98904,-38.4266 6.80588,-58.259 22.11288,-91.0459 25.90452,-55.4862 65.18798,-94.6608 120.7545,-120.4201 37.26794,-17.2765 57.2782,-21.3951 103.35229,-21.2726 56.36061,0.1499 89.09421,9.8701 134.48121,39.934 46.1656,30.5796 81.524,77.0474 98.8309,129.8831 7.654,23.3666 9.0791,32.5091 10.2433,65.7143 1.1402,32.5219 0.4103,42.5154 -4.6542,63.7181 -21.9708,91.9813 -92.5301,162.9719 -183.7072,184.8302 -28.5917,6.8543 -79.56646,7.4007 -108.60392,1.164 z m 102.65492,-45.6626 c 38.6281,-9.9219 81.4523,-36.9767 105.0412,-66.3615 16.1162,-20.076 34.1094,-55.8762 40.4821,-80.5454 6.3444,-24.5594 6.2164,-72.291 -0.2605,-97.1428 -17.0059,-65.2511 -67.7327,-120.185 -130.5044,-141.3281 -31.7388,-10.6904 -77.17041,-13.1478 -109.61676,-5.9292 -72.24166,16.0723 -131.72088,73.9634 -150.19099,146.1808 -7.00828,27.4021 -7.49843,71.5329 -1.08887,98.0368 2.49444,10.3147 9.82654,29.6825 16.29354,43.0397 15.28439,31.5688 52.84994,70.3975 83.45682,86.263 45.92028,23.8034 98.22211,30.1583 146.38786,17.7867 z"
       style="opacity:0.994;fill:none;fill-opacity:1;fill-rule:evenodd;stroke:none;stroke-width:7.55905;stroke-linecap:round;stroke-miterlimit:4;stroke-dasharray:none;stroke-dashoffset:0;stroke-opacity:1;paint-order:stroke fill markers" />
    <path
       style="fill:#f4511e;fill-opacity:1;stroke:#f4511e;stroke-width:0.265;stroke-miterlimit:4;stroke-dasharray:none;stroke-opacity:1"
       fill="currentColor"
       d="m 256.00001,304.8 c -36.24792,0 -65.61667,29.36875 -65.61667,65.61666 0,36.24792 29.36875,65.61667 65.61667,65.61667 36.24791,0 65.61665,-29.36875 65.61665,-65.61667 0,-36.24791 -29.36874,-65.61666 -65.61665,-65.61666 z m 0,118.53333 c -29.18355,0 -52.91668,-23.73313 -52.91668,-52.91667 0,-29.18354 23.73312,-52.91666 52.91668,-52.91666 29.18354,0 52.91666,23.73312 52.91666,52.91666 0,29.18354 -23.73312,52.91667 -52.91666,52.91667 z m -21.16668,-57.15 c 4.68312,0 8.46667,-3.78354 8.46667,-8.46667 0,-4.68312 -3.78355,-8.46666 -8.46667,-8.46666 -4.68313,0 -8.46667,3.78354 -8.46667,8.46666 0,4.68313 3.78354,8.46667 8.46667,8.46667 z M 277.16667,349.25 c -4.68312,0 -8.46666,3.78354 -8.46666,8.46666 0,4.68313 3.78354,8.46667 8.46666,8.46667 4.68313,0 8.46667,-3.78354 8.46667,-8.46667 0,-4.68312 -3.78354,-8.46666 -8.46667,-8.46666 z M 256,383.11666 c -10.63625,0 -20.6375,4.68313 -27.46375,12.85875 -2.24896,2.69875 -1.87855,6.69396 0.8202,8.94292 2.69875,2.2225 6.69396,1.87854 8.94292,-0.82021 4.39208,-5.26521 10.84792,-8.30792 17.70063,-8.30792 6.8527,0 13.30854,3.01625 17.70062,8.30792 2.14313,2.56646 6.11188,3.14854 8.94293,0.82021 2.69875,-2.24896 3.04271,-6.24417 0.8202,-8.94292 C 276.6375,387.79979 266.63625,383.11666 256,383.11666 Z"
       id="path3700" />
  </g>
</svg>
