<?xml version="1.0" encoding="UTF-8" standalone="no"?>
<svg
   xmlns:dc="http://purl.org/dc/elements/1.1/"
   xmlns:cc="http://creativecommons.org/ns#"
   xmlns:rdf="http://www.w3.org/1999/02/22-rdf-syntax-ns#"
   xmlns:svg="http://www.w3.org/2000/svg"
   xmlns="http://www.w3.org/2000/svg"
   xmlns:sodipodi="http://sodipodi.sourceforge.net/DTD/sodipodi-0.dtd"
   xmlns:inkscape="http://www.inkscape.org/namespaces/inkscape"
   inkscape:version="1.0 (4035a4fb49, 2020-05-01)"
   sodipodi:docname="iso.svg"
   id="svg4"
   version="1.1"
   viewBox="0 0 1236 1024"
   style="width: 1.20703125em; height: 1em;vertical-align: middle;fill: currentColor;overflow: hidden;"
   class="svg-icon">
  <metadata
     id="metadata10">
    <rdf:RDF>
      <cc:Work
         rdf:about="">
        <dc:format>image/svg+xml</dc:format>
        <dc:type
           rdf:resource="http://purl.org/dc/dcmitype/StillImage" />
      </cc:Work>
    </rdf:RDF>
  </metadata>
  <defs
     id="defs8" />
  <sodipodi:namedview
     inkscape:current-layer="svg4"
     inkscape:window-maximized="1"
     inkscape:window-y="-8"
     inkscape:window-x="-8"
     inkscape:cy="686.19382"
     inkscape:cx="613.68091"
     inkscape:zoom="0.58695387"
     showgrid="false"
     id="namedview6"
     inkscape:window-height="1017"
     inkscape:window-width="1920"
     inkscape:pageshadow="2"
     inkscape:pageopacity="0"
     guidetolerance="10"
     gridtolerance="10"
     objecttolerance="10"
     borderopacity="1"
     bordercolor="#666666"
     pagecolor="#ffffff" />
  <path
     sodipodi:nodetypes="sssssscssssssssssssssssssssssssccssscssssssssssssssssssssssssssssssssss"
     style="fill:#f4511e;fill-opacity:1"
     id="path2"
     fill="#4A90E2"
     d="m 178.71698,317.87472 c 0,-26.79789 21.61993,-48.52408 48.30189,-48.52408 26.68196,0 48.30189,21.72619 48.30189,48.52408 v 380.96664 c 0,26.80754 -21.61993,48.53373 -48.30189,48.53373 -26.68196,0 -48.30189,-21.73585 -48.30189,-48.53373 V 317.87472 Z M 1188.2264,856.17993 c -26.6819,0 -48.378,-1.73893 -48.3749,-28.54648 l 0.073,-633.51783 c 0.01,-53.51849 -43.3364,-97.057808 -96.6037,-97.057809 H 193.20755 c -53.26732,0 -96.603777,43.548979 -96.603776,97.067469 v 633.32468 c 0,53.51849 43.336456,97.05781 96.603776,97.05781 h 850.11325 c 53.2673,0 96.6037,-43.53932 96.6037,-97.05781 0,-26.80754 21.62,-48.53373 48.3019,-48.53373 26.682,0 48.3019,21.73585 48.3019,48.53373 0,107.03698 -86.6729,194.12524 -193.2075,194.12524 H 193.20755 C 86.672905,1021.5752 0,934.48694 0,827.44996 V 194.11562 C 0,87.088302 86.672906,0 193.20755,0 h 850.11325 c 106.5346,0 193.1839,87.088305 193.2075,194.12528 l 0.1399,633.54076 c 0.01,26.79788 -21.7598,28.51388 -48.4418,28.51389 z M 530.44166,647.88287 c 22.528,0 39.5206,-15.91064 39.5206,-36.99925 V 587.8243 c -0.0213,-21.82093 -17.69968,-39.50798 -39.5206,-39.53992 h -44.26385 c -74.91622,0 -135.86355,-61.54627 -135.86355,-137.20634 v -6.5594 c 0,-36.68045 14.24906,-70.87819 40.10989,-96.31396 25.49374,-25.05902 59.49827,-38.85404 95.75366,-38.85404 h 41.84876 c 67.072,0 121.63381,53.46053 121.63381,119.18008 0,26.79788 -21.61993,48.52407 -48.30189,48.52407 -26.68196,0 -48.30189,-21.72619 -48.30189,-48.52407 0,-13.85298 -12.72271,-22.12227 -25.02037,-22.12227 h -41.85842 c -22.38309,0 -39.25977,16.384 -39.25977,38.11019 v 6.5594 c 0,22.14158 17.61087,40.14853 39.25977,40.14853 h 44.26385 c 75.06113,0 136.12438,61.27577 136.12438,136.59773 v 23.05932 c 0,75.17706 -59.79774,134.06672 -136.12438,134.06672 h -71.93117 c -67.57434,0 -120.49389,-52.23366 -120.49389,-118.89993 0,-26.80754 21.61993,-48.53373 48.30189,-48.53373 26.68196,0 48.30189,21.73585 48.30189,48.53373 0,14.336 12.01751,21.83246 23.89011,21.83246 z M 896,269.35064 c 95.87924,0 173.8868,78.37464 173.8868,174.70793 v 126.17418 c 0,96.34295 -78.00756,174.71759 -173.8868,174.71759 -95.87924,0 -173.88679,-78.37464 -173.88679,-174.71759 V 444.05857 c 0,-96.33329 78.00755,-174.70793 173.88679,-174.70793 z m 77.28302,300.88211 V 444.05857 c 0,-42.8148 -34.6711,-77.65012 -77.28302,-77.65012 -42.61192,0 -77.28302,34.83532 -77.28302,77.65012 v 126.17418 c 0,42.82446 34.6711,77.65012 77.28302,77.65012 42.61192,0 77.28302,-34.82566 77.28302,-77.65012 z" />
</svg>
